<svg width="914" height="400" fill="none" xmlns="http://www.w3.org/2000/svg"><style>#CL0 {fill: #00ACD7;}#CL1 {fill: #333;}@media (prefers-color-scheme: dark) {#CL0 {fill: #00ACD7;}#CL1 {fill: #EEE;}}</style><path d="M404.006 208v-15.4h4.06v3.22h1.232l-1.372.98c0-1.381.402-2.473 1.204-3.276.803-.803 1.886-1.204 3.248-1.204 1.55 0 2.763.523 3.64 1.568.878 1.045 1.316 2.483 1.316 4.312v1.54h-4.2v-1.26c0-.803-.214-1.419-.644-1.848-.429-.448-1.036-.672-1.82-.672s-1.39.252-1.82.756c-.429.485-.644 1.185-.644 2.1V208h-4.2Zm21.689.28c-1.362 0-2.557-.252-3.584-.756-1.008-.523-1.792-1.241-2.352-2.156-.541-.933-.812-2.016-.812-3.248v-3.64c0-1.232.271-2.305.812-3.22a5.598 5.598 0 0 1 2.352-2.156c1.027-.523 2.222-.784 3.584-.784 1.363 0 2.539.261 3.528.784 1.008.504 1.783 1.223 2.324 2.156.56.915.84 1.988.84 3.22v2.856h-9.436v.784c0 .971.224 1.68.672 2.128.467.448 1.158.672 2.072.672.598 0 1.12-.093 1.568-.28.448-.187.71-.467.784-.84h4.116c-.298 1.344-1.036 2.427-2.212 3.248-1.176.821-2.594 1.232-4.256 1.232Zm2.688-9.156v-.7c0-.952-.224-1.689-.672-2.212-.429-.523-1.101-.784-2.016-.784-.914 0-1.605.271-2.072.812-.448.541-.672 1.288-.672 2.24v.364l5.712-.056-.28.336Zm11.217 9.156c-1.474 0-2.678-.541-3.612-1.624-.914-1.101-1.372-2.567-1.372-4.396v-3.92c0-1.829.458-3.285 1.372-4.368.934-1.101 2.138-1.652 3.612-1.652 1.438 0 2.567.495 3.388 1.484.822.989 1.232 2.361 1.232 4.116l-1.372-2.1h.98l-.14-4.06v-4.2h4.2V208h-4.06v-3.22h-.98l1.372-2.1c0 1.736-.41 3.108-1.232 4.116-.821.989-1.95 1.484-3.388 1.484Zm1.624-3.64c.803 0 1.41-.224 1.82-.672.43-.467.644-1.129.644-1.988v-3.36c0-.859-.214-1.512-.644-1.96-.41-.467-1.017-.7-1.82-.7-.765 0-1.362.215-1.792.644-.41.429-.616 1.055-.616 1.876v3.64c0 .803.206 1.428.616 1.876.43.429 1.027.644 1.792.644Zm11.749 8.4 2.1-5.796-5.796-14.644h4.368l2.492 6.72c.187.504.374 1.083.56 1.736.206.653.346 1.269.42 1.848.075-.579.196-1.195.364-1.848.168-.653.346-1.232.532-1.736l2.324-6.72h4.396l-7.364 20.44h-4.396Z" id="CL1"/><path d="M472.675 208.28c-.71 0-1.288-.215-1.736-.644-.43-.429-.644-.98-.644-1.652 0-.709.214-1.288.644-1.736.448-.448 1.026-.672 1.736-.672.709 0 1.278.224 1.708.672.448.448.672 1.027.672 1.736 0 .672-.224 1.223-.672 1.652-.43.429-.999.644-1.708.644Zm11.721 4.76v-2.464h4.34c.84 0 1.512-.243 2.016-.728.504-.467.756-1.111.756-1.932v-1.288l.056-2.66h-.028c-.187.952-.644 1.689-1.372 2.212-.71.523-1.624.784-2.744.784-1.587 0-2.838-.504-3.752-1.512-.915-1.027-1.372-2.427-1.372-4.2v-3.164c0-1.773.457-3.173 1.372-4.2.914-1.045 2.165-1.568 3.752-1.568 1.082 0 1.978.261 2.688.784.728.523 1.194 1.241 1.4 2.156h.028v-2.66h2.716v15.344c0 1.568-.495 2.809-1.484 3.724-.99.915-2.334 1.372-4.032 1.372h-4.34Zm3.892-8.4c.989 0 1.773-.308 2.352-.924.578-.616.868-1.484.868-2.604v-2.884c0-1.101-.29-1.96-.868-2.576-.579-.616-1.363-.924-2.352-.924-1.027 0-1.82.299-2.38.896-.56.579-.84 1.372-.84 2.38v3.36c0 1.008.28 1.811.84 2.408.56.579 1.353.868 2.38.868Zm15.725 3.584c-1.886 0-3.388-.541-4.508-1.624-1.102-1.083-1.652-2.595-1.652-4.536v-3.528c0-1.941.55-3.453 1.652-4.536 1.12-1.083 2.622-1.624 4.508-1.624 1.885 0 3.378.541 4.48 1.624 1.12 1.083 1.68 2.595 1.68 4.536v3.528c0 1.941-.56 3.453-1.68 4.536-1.102 1.083-2.595 1.624-4.48 1.624Zm0-2.436c1.045 0 1.866-.289 2.464-.868.616-.597.924-1.465.924-2.604v-4.032c0-1.139-.308-1.997-.924-2.576-.598-.597-1.419-.896-2.464-.896-1.046 0-1.876.299-2.492.896-.598.579-.896 1.437-.896 2.576v4.032c0 1.139.298 2.007.896 2.604.616.579 1.446.868 2.492.868Z" id="CL0"/></svg>