<svg width="914" height="400" fill="none" xmlns="http://www.w3.org/2000/svg">
  <path fill="#fff" d="M0 0h914v400H0z"/>
  <path d="M421.472 198.896c-.52-.282-1.126-.423-1.819-.423-.938 0-1.672.346-2.201 1.039-.528.683-.793 1.618-.793 2.802V209h-4.32v-14h4.32v2.598h.055c.683-1.896 1.914-2.844 3.691-2.844.456 0 .812.055 1.067.164v3.978zm13.932 4.334h-9.133c.146 2.033 1.427 3.049 3.842 3.049 1.54 0 2.894-.364 4.06-1.093v3.117c-1.294.692-2.975 1.039-5.044 1.039-2.261 0-4.015-.625-5.264-1.873-1.249-1.258-1.873-3.008-1.873-5.25 0-2.324.674-4.166 2.023-5.524 1.349-1.358 3.008-2.037 4.977-2.037 2.041 0 3.618.606 4.73 1.819 1.121 1.212 1.682 2.857 1.682 4.935v1.818zm-4.006-2.652c0-2.005-.811-3.008-2.434-3.008-.692 0-1.294.287-1.804.862-.502.574-.807 1.289-.916 2.146h5.154zM451.113 209h-4.32v-1.928h-.055c-.984 1.513-2.429 2.27-4.334 2.27-1.75 0-3.158-.615-4.224-1.846-1.067-1.239-1.6-2.967-1.6-5.182 0-2.315.588-4.169 1.764-5.564 1.176-1.395 2.716-2.092 4.621-2.092 1.805 0 3.062.647 3.773 1.942h.055v-8.327h4.32V209zm-4.238-6.809v-1.052c0-.912-.264-1.668-.793-2.27-.528-.601-1.217-.902-2.064-.902-.957 0-1.705.378-2.242 1.135-.538.747-.807 1.777-.807 3.089 0 1.231.26 2.179.779 2.844.52.666 1.24.998 2.16.998.875 0 1.586-.351 2.133-1.053.556-.701.834-1.631.834-2.789zM467.52 195l-5.687 15.121c-1.367 3.637-3.427 5.455-6.18 5.455-1.048 0-1.909-.118-2.584-.355v-3.446a3.627 3.627 0 001.873.506c1.112 0 1.887-.524 2.324-1.572l.739-1.736L452.317 195h4.785l2.612 8.518c.164.528.291 1.153.382 1.873h.055c.082-.529.233-1.144.451-1.846l2.639-8.545h4.279z" fill="#333"/>
  <path d="M469.941 209.273c-.365 0-.675-.127-.93-.382a1.268 1.268 0 01-.383-.93c0-.374.123-.688.369-.943.256-.256.57-.383.944-.383.182 0 .351.036.506.109.164.064.305.155.423.274.119.109.215.246.288.41a1.313 1.313 0 01-.288 1.463 1.214 1.214 0 01-.423.273 1.173 1.173 0 01-.506.109zm16.352-1.353c0 2.598-.593 4.521-1.778 5.769-1.175 1.258-2.994 1.887-5.455 1.887a9.598 9.598 0 01-4.347-1.025v-1.778c1.522.848 2.971 1.272 4.347 1.272 3.655 0 5.483-1.932 5.483-5.797v-1.682h-.055c-1.075 1.842-2.716 2.762-4.922 2.762-.866 0-1.659-.159-2.379-.478a5.142 5.142 0 01-1.832-1.381c-.51-.602-.907-1.331-1.189-2.188-.283-.866-.424-1.841-.424-2.926 0-1.148.15-2.192.451-3.13.301-.948.729-1.76 1.285-2.434a5.69 5.69 0 012.01-1.559c.793-.373 1.682-.56 2.666-.56 1.978 0 3.423.802 4.334 2.406h.055V195h1.75v12.92zm-1.75-7.424a4.37 4.37 0 00-1.19-3.021 4.105 4.105 0 00-1.339-.93 3.981 3.981 0 00-1.696-.356c-.729 0-1.39.142-1.982.424a4.356 4.356 0 00-1.504 1.203c-.41.52-.729 1.153-.957 1.901-.219.738-.328 1.572-.328 2.502 0 .857.105 1.631.314 2.324.21.693.506 1.281.889 1.764a4 4 0 001.381 1.121 4.128 4.128 0 001.818.396c.693 0 1.322-.123 1.887-.369a4.383 4.383 0 001.449-1.039c.401-.447.711-.966.93-1.559a5.65 5.65 0 00.328-1.941v-2.42zm11.43 8.832c-1.039 0-1.973-.173-2.803-.519a6.04 6.04 0 01-2.105-1.463 6.534 6.534 0 01-1.34-2.284c-.31-.884-.465-1.863-.465-2.939 0-1.167.164-2.21.492-3.131.328-.92.793-1.7 1.395-2.338a6.008 6.008 0 012.201-1.476c.857-.338 1.814-.506 2.871-.506 1.012 0 1.923.168 2.734.506.812.328 1.5.806 2.065 1.435s.998 1.395 1.299 2.297c.301.902.451 1.928.451 3.076 0 1.094-.16 2.092-.479 2.994a6.653 6.653 0 01-1.339 2.311 5.981 5.981 0 01-2.133 1.504c-.839.355-1.787.533-2.844.533zm.137-13.139c-.766 0-1.459.133-2.078.397a4.39 4.39 0 00-1.6 1.162c-.437.501-.775 1.121-1.012 1.859-.237.73-.355 1.559-.355 2.489 0 .875.118 1.663.355 2.365.237.702.57 1.303.998 1.805.438.501.966.888 1.586 1.162.62.264 1.313.396 2.078.396.784 0 1.477-.127 2.079-.383a4.205 4.205 0 001.531-1.134c.419-.502.733-1.112.943-1.832.219-.72.328-1.541.328-2.461 0-1.887-.419-3.327-1.258-4.321-.838-1.002-2.037-1.504-3.595-1.504z" fill="#555"/>
</svg>
